<?xml version="1.0" encoding="UTF-8" standalone="no"?>
<svg
   xmlns:dc="http://purl.org/dc/elements/1.1/"
   xmlns:cc="http://creativecommons.org/ns#"
   xmlns:rdf="http://www.w3.org/1999/02/22-rdf-syntax-ns#"
   xmlns:svg="http://www.w3.org/2000/svg"
   xmlns="http://www.w3.org/2000/svg"
   version="1.1"
   id="svg190"
   xml:space="preserve"
   width="478.44"
   height="455.32028"
   viewBox="0 0 478.43999 455.32027"><metadata
     id="metadata196"><rdf:RDF><cc:Work
         rdf:about=""><dc:format>image/svg+xml</dc:format><dc:type
           rdf:resource="http://purl.org/dc/dcmitype/StillImage" /><dc:title></dc:title></cc:Work></rdf:RDF></metadata><defs
     id="defs194"><clipPath
       clipPathUnits="userSpaceOnUse"
       id="clipPath220"><path
         d="M 0,2000 H 2000 V 0 H 0 Z"
         id="path218" /></clipPath></defs><g
     id="g198"
     transform="matrix(1.3333333,0,0,-1.3333333,-1094.1133,1652.2801)"
     style="display:inline"><g
       id="g627"
       style="fill:#000000"><g
         id="g342"
         transform="translate(999.855,966.02)"
         style="fill:#000000"><path
           d="m 0,0 c -35.06,0 -63.47,24.1 -63.47,53.83 0,29.73 28.41,53.83 63.47,53.83 35.06,0 63.47,-24.1 63.47,-53.83 C 63.47,24.1 35.06,0 0,0 m -62.92,149.45 c 0,7.71 6.25,13.96 13.96,13.96 7.71,0 13.97,-6.25 13.97,-13.96 0,-5.21 -2.86,-9.76 -7.1,-12.17 -2.03,-1.15 -4.37,-1.8 -6.87,-1.8 -5.26,0 -9.84,2.91 -12.22,7.21 -1.11,2.01 -1.74,4.31 -1.74,6.76 m 97.91,0 c 0,7.71 6.26,13.96 13.97,13.96 7.71,0 13.96,-6.25 13.96,-13.96 0,-2.49 -0.65,-4.83 -1.8,-6.86 -2.39,-4.24 -6.94,-7.11 -12.16,-7.11 -2.46,0 -4.77,0.63 -6.77,1.74 -4.29,2.39 -7.2,6.98 -7.2,12.23 M 153.91,40.54 c 8.33,16.1 13.26,33.76 14,52.31 -2.7,3.06 -5.74,6.05 -8.98,9.11 1.79,-1.19 3.84,-1.55 6.84,-0.32 -10.83,6.45 -16.4,22.86 -20.51,36.64 0.2,-0.42 3.44,-7.31 10.55,-16.4 1.46,6.74 0.78,11.91 -4.79,25.69 0,0 6.24,-2.33 10.41,-10.19 -3.28,9.64 -7.72,18.86 -13.21,27.54 -0.43,0.67 -0.86,1.35 -1.29,2.01 -13.64,20.8 -33.24,38.41 -56.85,51.15 24.5,-12.01 45.35,-28.78 60.8,-48.82 5.44,10.14 12.3,34.2 10.58,53.92 -1.8,20.6 -16.53,21.5 -19.77,39.05 -3.24,17.54 -9.48,10.65 -12.43,2.58 -2.96,-8.08 -8.57,-19.31 -20.85,-24.05 -1.52,-0.59 -2.96,-1.15 -4.33,-1.71 h -0.03 C 94.56,235.12 88.75,231.28 85.21,220.62 60.22,233.11 31.1,240.27 0,240.27 c -31.04,0 -60.11,-7.13 -85.07,-19.58 -0.05,-0.02 -0.09,-0.05 -0.14,-0.07 -0.02,0.07 -0.05,0.15 -0.08,0.22 -3.53,10.48 -9.31,14.29 -18.74,18.18 h -0.01 c -1.38,0.57 -2.83,1.15 -4.37,1.74 -12.27,4.74 -17.89,15.97 -20.84,24.05 -2.96,8.07 -9.2,14.96 -12.44,-2.58 -3.24,-17.55 -17.96,-18.45 -19.76,-39.05 -1.72,-19.72 5.13,-43.76 10.57,-53.91 15.46,20.04 36.31,36.8 60.8,48.81 -23.59,-12.73 -43.17,-30.3 -56.81,-51.08 -0.45,-0.68 -0.89,-1.38 -1.33,-2.07 -5.84,-9.23 -10.5,-19.08 -13.83,-29.4 -0.01,-0.02 -0.01,-0.03 -0.01,-0.04 4.11,9.38 11.33,12.08 11.33,12.08 -5.57,-13.78 -6.26,-18.95 -4.79,-25.69 7.1,9.09 10.35,15.98 10.55,16.4 -4.11,-13.78 -9.68,-30.19 -20.52,-36.64 3.01,-1.23 5.05,-0.87 6.85,0.32 -3.35,-3.16 -6.49,-6.26 -9.26,-9.43 2.19,-51.2 36.23,-95.51 85.82,-119.11 0.11,-0.05 0.23,-0.11 0.35,-0.16 5.79,-2.74 11.8,-5.21 18,-7.36 0.16,-0.06 0.33,-0.11 0.49,-0.17 10.89,-3.76 22.34,-6.57 34.23,-8.32 0.11,-0.02 0.22,-0.04 0.34,-0.05 9.31,-1.36 18.89,-2.07 28.67,-2.07 9.88,0 19.56,0.72 28.98,2.12 0.1,0.01 0.21,0.02 0.31,0.05 11.9,1.76 23.37,4.6 34.27,8.39 0.14,0.04 0.28,0.09 0.42,0.15 6.23,2.17 12.27,4.65 18.1,7.43 0.08,0.04 0.16,0.08 0.24,0.11 0.73,0.36 1.46,0.71 2.19,1.07 l 41.8084,32.1606429 z"
           style="fill:#000000;fill-opacity:1;fill-rule:nonzero;stroke:none"
           id="path344" /></g><g
         id="g346"
         transform="translate(986.165,1019.8501)"
         style="fill:#000000"><path
           d="m 0,0 c 0,-8.81 -4.77,-15.96 -10.65,-15.96 -5.89,0 -10.65,7.15 -10.65,15.96 0,8.81 4.76,15.95 10.65,15.95 C -4.77,15.95 0,8.81 0,0"
           style="fill:#000000;fill-opacity:1;fill-rule:nonzero;stroke:none"
           id="path348" /></g><g
         id="g350"
         transform="translate(1034.8452,1019.8501)"
         style="fill:#000000"><path
           d="m 0,0 c 0,-8.81 -4.76,-15.96 -10.64,-15.96 -5.89,0 -10.66,7.15 -10.66,15.96 0,8.81 4.77,15.95 10.66,15.95 C -4.76,15.95 0,8.81 0,0"
           style="fill:#000000;fill-opacity:1;fill-rule:nonzero;stroke:none"
           id="path352" /></g><g
         id="g354"
         transform="translate(1109.5049,1204.0601)"
         style="fill:#000000"><path
           d="m 0,0 -26.17,-18.69 h -75.04 l -8.29,2.95 -8.3,-2.95 h -75.05 L -219.01,0 l 0.86,0.29 c 0,0 13.79,3.16 27.59,-1.44 -0.34,0.24 -11.24,7.77 -13.5,8.34 12.36,5.17 20.7,2.59 40.25,-3.74 0,0 -2.87,7.18 -13.22,10.92 0,0 16.96,4.31 36.23,-3.16 0,0 -1.15,5.75 -14.09,12.65 0,0 20.41,-0.28 36.23,-15.24 0,0 1.72,7.19 -7.47,14.95 0.3,-0.09 9.85,-2.95 16.63,-13.15 6.77,10.2 16.31,13.06 16.62,13.15 -9.2,-7.76 -7.47,-14.95 -7.47,-14.95 15.81,14.96 36.23,15.24 36.23,15.24 -12.94,-6.9 -14.09,-12.65 -14.09,-12.65 19.26,7.47 36.23,3.16 36.23,3.16 -10.35,-3.74 -13.23,-10.92 -13.23,-10.92 19.55,6.33 27.89,8.91 40.26,3.74 -2.27,-0.57 -13.17,-8.1 -13.5,-8.34 13.79,4.6 27.59,1.44 27.59,1.44 z"
           style="fill:#000000;fill-opacity:1;fill-rule:nonzero;stroke:none"
           id="path356" /></g><g
         id="g358"
         transform="translate(986.165,1019.8501)"
         style="fill:#000000"><path
           d="m 0,0 c 0,-8.81 -4.77,-15.96 -10.65,-15.96 -5.89,0 -10.65,7.15 -10.65,15.96 0,8.81 4.76,15.95 10.65,15.95 C -4.77,15.95 0,8.81 0,0"
           style="fill:#000000;fill-opacity:1;fill-rule:nonzero;stroke:none"
           id="path360" /></g><g
         id="g362"
         transform="translate(1034.8452,1019.8501)"
         style="fill:#000000"><path
           d="m 0,0 c 0,-8.81 -4.76,-15.96 -10.64,-15.96 -5.89,0 -10.66,7.15 -10.66,15.96 0,8.81 4.77,15.95 10.66,15.95 C -4.76,15.95 0,8.81 0,0"
           style="fill:#000000;fill-opacity:1;fill-rule:nonzero;stroke:none"
           id="path364" /></g><g
         id="g366"
         transform="translate(999.855,966.02)"
         style="fill:#000000"><path
           d="m 0,0 c -35.06,0 -63.47,24.1 -63.47,53.83 0,29.73 28.41,53.83 63.47,53.83 35.06,0 63.47,-24.1 63.47,-53.83 C 63.47,24.1 35.06,0 0,0 m 179.56,67.92 c -0.57,9.8 -5.12,17.54 -11.65,24.93 -2.7,3.06 -5.74,6.05 -8.98,9.11 1.79,-1.19 3.84,-1.55 6.84,-0.32 -10.83,6.45 -16.4,22.86 -20.51,36.64 0.2,-0.42 3.44,-7.31 10.55,-16.4 1.46,6.74 0.78,11.91 -4.79,25.69 0,0 6.24,-2.33 10.41,-10.19 0.32,-0.6 0.63,-1.23 0.92,-1.9 0,0 -2.44,18.64 -15.17,31.52 l -0.25,-0.07 -85.81,-24.34 c -2.39,-4.24 -6.94,-7.11 -12.16,-7.11 -2.46,0 -4.77,0.63 -6.77,1.74 L 0.15,125.3 -42.09,137.28 c -2.03,-1.15 -4.37,-1.8 -6.87,-1.8 -5.26,0 -9.84,2.91 -12.22,7.21 L -146.89,167 c -12.33,-12.48 -15.01,-30.36 -15.16,-31.47 -0.01,-0.02 -0.01,-0.03 -0.01,-0.04 4.11,9.38 11.33,12.08 11.33,12.08 -5.57,-13.78 -6.26,-18.95 -4.79,-25.69 7.1,9.09 10.35,15.98 10.55,16.4 -4.11,-13.78 -9.68,-30.19 -20.52,-36.64 3.01,-1.23 5.05,-0.87 6.85,0.32 -3.35,-3.16 -6.49,-6.26 -9.26,-9.43 -6.38,-7.3 -10.81,-14.96 -11.37,-24.61 3.52,9.68 8.5,12.03 10.85,13.79 -8.21,-14.96 -6.75,-31.38 -4.69,-40.76 3.51,14.66 9.38,20.82 9.38,20.82 -6.45,-22.58 -3.52,-41.93 1.61,-50.14 1.91,12.31 4.84,22.58 4.84,22.58 0,0 -2.05,-30.21 6.45,-46.04 -0.58,10.55 4.4,21.11 5.87,24.34 -4.11,-14.96 4.69,-36.37 10.26,-41.93 -4.4,14.66 1.76,22.87 1.76,22.87 1.47,-21.99 14.95,-36.95 21.99,-39.59 -6.45,13.2 -5.57,23.75 -5.57,23.75 7.33,-21.11 23.16,-29.32 22.58,-28.44 -8.21,17.89 -4.11,23.16 -4.11,23.16 7.04,-19.05 18.77,-23.22 18.77,-23.22 -5.34,15.3 -3.41,22.62 -2.8,24.31 0.1,0.26 0.16,0.38 0.16,0.38 0.06,-0.18 0.12,-0.36 0.19,-0.54 8.21,-23.6 20.63,-29.95 20.63,-29.95 -5.36,13.89 -3.43,20.69 -2.63,22.59 0.16,0.39 0.28,0.57 0.28,0.57 0.07,-0.25 0.14,-0.49 0.21,-0.74 6.18,-21.08 16.26,-26.55 20.31,-28.58 -5.56,10.85 -3.81,22.87 -3.81,22.87 6.45,-18.77 19.36,-24.92 19.36,-24.92 -4.32,10.41 -2.26,19.95 -1.63,22.31 0.1,0.37 0.16,0.56 0.16,0.56 0.06,-0.2 0.11,-0.41 0.18,-0.61 5.08,-18.03 17.42,-25.49 18.29,-25.49 -2.93,12.31 -2.05,20.82 -2.05,20.82 4.82,-11.46 9.78,-17.82 12.43,-20.68 0.05,-0.05 0.09,-0.1 0.15,-0.15 0.04,0.05 0.09,0.1 0.14,0.15 2.65,2.86 7.6,9.22 12.42,20.68 0,0 0.88,-8.51 -2.05,-20.82 0.87,0 13.23,7.48 18.32,25.54 0.06,0.19 0.11,0.37 0.16,0.56 0,0 0.06,-0.18 0.15,-0.51 0.61,-2.29 2.72,-11.88 -1.62,-22.36 0,0 12.9,6.15 19.35,24.92 0,0 1.76,-12.02 -3.81,-22.87 4.06,2.03 14.17,7.52 20.35,28.7 0.06,0.21 0.12,0.41 0.18,0.62 0,0 0.1,-0.15 0.24,-0.47 0.77,-1.75 2.87,-8.55 -2.59,-22.69 0,0 12.48,6.38 20.69,30.12 0.04,0.12 0.09,0.24 0.13,0.37 0,0 0.04,-0.08 0.11,-0.26 0.54,-1.41 2.73,-8.72 -2.75,-24.43 0,0 11.64,4.14 18.69,23 0.02,0.07 0.05,0.15 0.08,0.22 0,0 0.06,-0.08 0.16,-0.26 0.67,-1.25 2.91,-7.24 -4.27,-22.9 -0.51,-0.75 11.08,5.18 19.01,20.21 1.31,2.49 2.53,5.23 3.57,8.23 0,0 0.28,-3.4 -0.65,-8.76 -0.71,-4.07 -2.13,-9.28 -4.92,-14.99 3.67,1.38 9.08,6.09 13.63,13.41 4.2,6.73 7.66,15.65 8.36,26.18 0,0 6.16,-8.21 1.76,-22.87 5.57,5.56 14.37,26.97 10.26,41.93 1.47,-3.23 6.45,-13.79 5.86,-24.34 4.56,8.49 6.09,21.1 6.52,30.98 0.37,8.56 -0.07,15.06 -0.07,15.06 0,0 2.94,-10.27 4.85,-22.58 5.13,8.21 8.06,27.56 1.61,50.14 0,0 5.86,-6.16 9.38,-20.82 2.05,9.38 3.52,25.8 -4.69,40.76 2.34,-1.76 7.33,-4.11 10.85,-13.79"
           style="fill:#000000;fill-opacity:1;fill-rule:nonzero;stroke:none"
           id="path368" /></g><g
         id="g370"
         transform="translate(1000.29,898.0303)"
         style="fill:#000000"><path
           d="M 0,0 V -0.31 C -0.05,-0.26 -0.1,-0.2 -0.14,-0.15 -0.1,-0.1 -0.05,-0.05 0,0"
           style="fill:#000000;fill-opacity:1;fill-rule:nonzero;stroke:none"
           id="path372" /></g><g
         id="g374"
         transform="translate(1000.1499,897.8799)"
         style="fill:#000000"><path
           d="M 0,0 C -0.05,-0.05 -0.1,-0.11 -0.15,-0.16 V 0.15 C -0.1,0.1 -0.06,0.05 0,0"
           style="fill:#000000;fill-opacity:1;fill-rule:nonzero;stroke:none"
           id="path376" /></g></g></g></svg>
